<svg width="63" height="19" viewBox="0 0 63 19" fill="none" xmlns="http://www.w3.org/2000/svg">
<path d="M6.47678 0C7.53391 0.0188771 8.4589 0.264282 9.25174 0.736214C10.0446 1.20815 10.6487 1.84054 11.064 2.63338C11.4981 3.42623 11.7152 4.3229 11.7152 5.3234C11.7152 6.05961 11.5736 6.75807 11.2905 7.41878C11.0262 8.06061 10.6581 8.63636 10.1862 9.14605C10.8658 9.65574 11.3943 10.2881 11.7719 11.0432C12.1683 11.7983 12.3665 12.6289 12.3665 13.535C12.3665 14.4978 12.1305 15.385 11.6586 16.1967C11.1867 17.0084 10.5543 17.6597 9.76143 18.1505C8.96858 18.6225 8.09079 18.8584 7.12805 18.8584H0.95517V0H6.47678ZM3.44697 2.54843V8.15499H6.47678C7.25075 8.15499 7.90201 7.88127 8.43058 7.33383C8.95914 6.78639 9.22342 6.11624 9.22342 5.3234C9.22342 4.53055 8.95914 3.86985 8.43058 3.34128C7.92089 2.81272 7.26963 2.54843 6.47678 2.54843H3.44697ZM3.44697 10.7034V16.31H7.12805C7.90201 16.31 8.55328 16.0457 9.08185 15.5171C9.61041 14.9697 9.87469 14.309 9.87469 13.535C9.87469 12.7422 9.61041 12.072 9.08185 11.5246C8.55328 10.9771 7.90201 10.7034 7.12805 10.7034H3.44697Z" fill="#0065FC"/>
<path d="M21.8004 19C20.8376 19 19.9221 18.8112 19.0537 18.4337C18.1853 18.0561 17.4208 17.537 16.7601 16.8763C16.0994 16.2156 15.5803 15.4511 15.2027 14.5827C14.8252 13.7144 14.6364 12.7988 14.6364 11.8361C14.6364 10.8544 14.8252 9.92002 15.2027 9.03279C15.5803 8.14555 16.0994 7.37158 16.7601 6.71088C17.4208 6.05017 18.1853 5.54049 19.0537 5.18182C19.9221 4.80427 20.8376 4.6155 21.8004 4.6155C22.782 4.6155 23.7164 4.80427 24.6036 5.18182C25.4909 5.54049 26.2648 6.05017 26.9255 6.71088C27.5862 7.37158 28.0959 8.14555 28.4546 9.03279C28.8321 9.92002 29.0209 10.8544 29.0209 11.8361C29.0209 12.7988 28.8321 13.7144 28.4546 14.5827C28.0959 15.4511 27.5862 16.2156 26.9255 16.8763C26.2648 17.537 25.4909 18.0561 24.6036 18.4337C23.7164 18.8112 22.782 19 21.8004 19ZM21.8004 7.13562C20.5356 7.13562 19.4501 7.58867 18.544 8.49478C18.1098 8.92896 17.77 9.43865 17.5246 10.0238C17.2792 10.609 17.1565 11.2131 17.1565 11.8361C17.1565 12.459 17.2792 13.0537 17.5246 13.62C17.77 14.1863 18.1098 14.6865 18.544 15.1207C18.9782 15.5549 19.469 15.8947 20.0164 16.1401C20.5828 16.3855 21.1774 16.5082 21.8004 16.5082C22.4233 16.5082 23.0274 16.3855 23.6126 16.1401C24.1978 15.8947 24.698 15.5549 25.1133 15.1207C25.5286 14.6865 25.859 14.1863 26.1044 13.62C26.3498 13.0537 26.4725 12.459 26.4725 11.8361C26.4725 11.2131 26.3498 10.609 26.1044 10.0238C25.859 9.43865 25.5286 8.92896 25.1133 8.49478C24.698 8.06061 24.1978 7.73025 23.6126 7.50373C23.0462 7.25832 22.4422 7.13562 21.8004 7.13562Z" fill="#0065FC"/>
<path d="M37.894 19C36.9312 19 36.0157 18.8112 35.1473 18.4337C34.279 18.0561 33.5144 17.537 32.8537 16.8763C32.193 16.2156 31.6739 15.4511 31.2964 14.5827C30.9188 13.7144 30.73 12.7988 30.73 11.8361C30.73 10.8544 30.9188 9.92002 31.2964 9.03279C31.6739 8.14555 32.193 7.37158 32.8537 6.71088C33.5144 6.05017 34.279 5.54049 35.1473 5.18182C36.0157 4.80427 36.9312 4.6155 37.894 4.6155C38.8756 4.6155 39.81 4.80427 40.6973 5.18182C41.5845 5.54049 42.3585 6.05017 43.0192 6.71088C43.6799 7.37158 44.1896 8.14555 44.5482 9.03279C44.9258 9.92002 45.1145 10.8544 45.1145 11.8361C45.1145 12.7988 44.9258 13.7144 44.5482 14.5827C44.1896 15.4511 43.6799 16.2156 43.0192 16.8763C42.3585 17.537 41.5845 18.0561 40.6973 18.4337C39.81 18.8112 38.8756 19 37.894 19ZM37.894 7.13562C36.6292 7.13562 35.5438 7.58867 34.6376 8.49478C34.2035 8.92896 33.8637 9.43865 33.6183 10.0238C33.3729 10.609 33.2502 11.2131 33.2502 11.8361C33.2502 12.459 33.3729 13.0537 33.6183 13.62C33.8637 14.1863 34.2035 14.6865 34.6376 15.1207C35.0718 15.5549 35.5626 15.8947 36.1101 16.1401C36.6764 16.3855 37.271 16.5082 37.894 16.5082C38.5169 16.5082 39.121 16.3855 39.7062 16.1401C40.2914 15.8947 40.7916 15.5549 41.2069 15.1207C41.6222 14.6865 41.9526 14.1863 42.198 13.62C42.4434 13.0537 42.5661 12.459 42.5661 11.8361C42.5661 11.2131 42.4434 10.609 42.198 10.0238C41.9526 9.43865 41.6222 8.92896 41.2069 8.49478C40.7916 8.06061 40.2914 7.73025 39.7062 7.50373C39.1399 7.25832 38.5358 7.13562 37.894 7.13562Z" fill="#0065FC"/>
<path d="M54.4557 18.8584L50.1517 13.62V18.8584H47.6599V0.0283154H50.1517V8.15499L54.0027 4.53055H57.712L51.0012 10.7601L57.7404 18.8584H54.4557Z" fill="#0065FC"/>
<path d="M60.7423 2.6617C60.3836 2.6617 60.0722 2.539 59.8079 2.29359C59.5625 2.02931 59.4398 1.71783 59.4398 1.35916C59.4398 1.0005 59.5625 0.69846 59.8079 0.453054C60.0722 0.188772 60.3836 0.0566312 60.7423 0.0566312C61.101 0.0566312 61.403 0.188772 61.6484 0.453054C61.9127 0.69846 62.0448 1.0005 62.0448 1.35916C62.0448 1.71783 61.9127 2.02931 61.6484 2.29359C61.403 2.539 61.101 2.6617 60.7423 2.6617ZM59.5813 18.8584V4.70045H61.9599V18.8584H59.5813Z" fill="#0065FC"/>
<path d="M39.389 10.0097C39.389 10.8094 38.7407 11.4577 37.941 11.4577C37.1413 11.4577 36.4931 10.8094 36.4931 10.0097C36.4931 9.21 37.1413 8.56172 37.941 8.56172C38.7407 8.56172 39.389 9.21 39.389 10.0097Z" fill="#0065FC"/>
<path d="M36.4931 14.6754L37.1921 9.52704H38.7899L39.3891 14.6754H36.4931Z" fill="#0065FC"/>
</svg>
