<svg width="23" height="22" viewBox="0 0 23 22" fill="none" xmlns="http://www.w3.org/2000/svg">
<path d="M0.503296 8.22829V7.98543C0.503296 5.05861 2.67408 2.56224 5.63376 2.08155C7.55447 1.76375 9.58689 2.38596 10.9877 3.75306L11.5033 4.25468L11.9802 3.75306C13.4197 2.38596 15.4135 1.76375 17.3728 2.08155C20.3334 2.56224 22.5033 5.05861 22.5033 7.98543V8.22829C22.5033 9.96595 21.7642 11.6283 20.458 12.8132L12.6935 19.8769C12.3713 20.17 11.9459 20.3333 11.5033 20.3333C11.0607 20.3333 10.6353 20.17 10.3131 19.8769L2.54818 12.8132C1.24365 11.6283 0.503309 9.96595 0.503309 8.22829H0.503296Z" fill="#0065FC"/>
</svg>
