<svg width="23" height="22" viewBox="0 0 23 22" fill="none" xmlns="http://www.w3.org/2000/svg">
<path d="M9.40057 1.21273C9.71396 0.92649 10.2001 0.930411 10.5135 1.21665C11.6224 2.23221 12.6631 3.32619 13.6354 4.51036C14.0774 3.94572 14.5796 3.33011 15.122 2.82821C15.4394 2.53805 15.9296 2.53805 16.247 2.83214C17.6372 4.12609 18.8144 5.83568 19.6421 7.45901C20.4577 9.05881 21.0001 10.6939 21.0001 11.8467C21.0001 16.85 16.9903 21.0769 12.0001 21.0769C6.95369 21.0769 3.00012 16.8461 3.00012 11.8428C3.00012 10.3371 3.7153 8.4981 4.82423 6.67872C5.94521 4.83189 7.52825 2.90664 9.40057 1.21273ZM12.0684 17.3127C13.0849 17.3127 13.9849 17.0382 14.8327 16.4893C16.5242 15.3365 16.9782 13.0309 15.9617 11.2193C15.7809 10.8664 15.3189 10.8429 15.0577 11.1409L14.0452 12.2898C13.78 12.5878 13.3019 12.5799 13.0528 12.2702C12.3899 11.4468 11.2046 9.97635 10.5296 9.14116C10.2765 8.82747 9.79432 8.82355 9.53718 9.13723C8.17914 10.8037 7.4961 11.8545 7.4961 13.0348C7.50012 15.7207 9.53316 17.3127 12.0684 17.3127Z" fill="#0065FC"/>
</svg>
