<svg width="23" height="22" viewBox="0 0 23 22" fill="none" xmlns="http://www.w3.org/2000/svg">
<g id="Icon">
<path id="Vector" d="M13.2396 2.0625C13.2396 3.2016 12.3362 4.125 11.2228 4.125C10.1094 4.125 9.20601 3.2016 9.20601 2.0625C9.20601 0.923398 10.1094 0 11.2228 0C12.3362 0 13.2396 0.923398 13.2396 2.0625ZM10.8867 15.125V20.625C10.8867 21.3855 10.2858 22 9.54214 22C8.79845 22 8.19762 21.3855 8.19762 20.625V11.0387L6.9972 13.084C6.61485 13.7328 5.78881 13.9434 5.15226 13.5523C4.51569 13.1613 4.30979 12.3191 4.6923 11.666L7.1409 7.50234C7.86989 6.26055 9.1808 5.5 10.5968 5.5H11.8488C13.2648 5.5 14.5757 6.26055 15.3068 7.50234L17.7522 11.666C18.1345 12.3191 17.9286 13.1613 17.2942 13.5523C16.6555 13.9434 15.832 13.7328 15.4497 13.084L14.248 11.0387V20.625C14.248 21.3855 13.6472 22 12.9035 22C12.1598 22 11.5589 21.3855 11.5589 20.625V15.125H10.8867Z" fill="#0065FC"/>
</g>
</svg>
