<svg width="22" height="22" viewBox="0 0 22 22" fill="none" xmlns="http://www.w3.org/2000/svg">
<path d="M21.352 3.68473C20.0187 3.09418 18.6842 2.86951 17.3505 2.86951C13.1166 2.86914 8.88305 5.13224 4.64915 5.13224C3.58732 5.13224 2.52618 4.98995 1.46435 4.63425C1.34507 4.59432 1.22545 4.57545 1.10858 4.57545C0.516992 4.57545 0 5.05892 0 5.73004V17.2455C0 17.7039 0.248527 18.1384 0.647615 18.3148C1.981 18.9057 3.31542 19.1304 4.64915 19.1304C8.88305 19.1304 13.117 16.8673 17.3509 16.8673C18.4127 16.8673 19.4738 17.0096 20.5356 17.3653C20.6549 17.4052 20.7745 17.4241 20.8914 17.4241C21.483 17.4241 22 16.9406 22 16.2695V4.75439C21.9997 4.2956 21.7511 3.86149 21.352 3.68473ZM1.64997 6.50715C2.34159 6.69008 3.06345 6.78191 3.80594 6.83128C3.60382 7.89803 2.71558 8.702 1.64997 8.702V6.50715ZM1.64997 16.8517V15.1174C2.83142 15.1174 3.78738 16.1072 3.83997 17.346C3.06551 17.2803 2.34159 17.117 1.64997 16.8517ZM10.9998 14.4844C9.48082 14.4844 8.24987 12.924 8.24987 10.9999C8.24987 9.0755 9.48116 7.51547 10.9998 7.51547C12.5185 7.51547 13.7498 9.0755 13.7498 10.9999C13.7498 12.9247 12.5181 14.4844 10.9998 14.4844ZM20.3497 15.4927C19.7474 15.3334 19.1222 15.2441 18.4825 15.1864C18.6842 14.2398 19.4278 13.5211 20.3497 13.3977V15.4927ZM20.3497 6.92275C19.2879 6.78083 18.4639 5.84474 18.4312 4.68869C19.1029 4.76746 19.7406 4.91482 20.3497 5.14821V6.92275Z" fill="#0065FC"/>
</svg>
